  <svg xmlns="http://www.w3.org/2000/svg" x="0px" y="0px" width="100" height="100" viewBox="0 0 50 50">
  <symbol id="icon-js">
    <path fill="#264de4" d="M 6.667969 4 C 5.207031 4 4 5.207031 4 6.667969 L 4 43.332031 C 4 44.792969 5.207031 46 6.667969 46 L 43.332031 46 C 44.792969 46 46 44.796875 46 43.332031 L 46 6.667969 C 46 5.207031 44.796875 4 43.332031 4 Z M 6.667969 6 L 43.332031 6 C 43.703125 6 44 6.296875 44 6.667969 L 44 43.332031 C 44 43.703125 43.703125 44 43.332031 44 L 6.667969 44 C 6.296875 44 6 43.703125 6 43.332031 L 6 6.667969 C 6 6.296875 6.296875 6 6.667969 6 Z M 23 23 L 23 35.574219 C 23 37.503906 22.269531 38 21 38 C 19.671875 38 18.75 37.171875 18.140625 36.097656 L 15 38 C 15.910156 39.925781 18.140625 42 21.234375 42 C 24.65625 42 27 40.179688 27 36.183594 L 27 23 Z M 35.453125 23 C 32.046875 23 29.863281 25.179688 29.863281 28.042969 C 29.863281 31.148438 31.695313 32.617188 34.449219 33.789063 L 35.402344 34.199219 C 37.140625 34.960938 38 35.425781 38 36.734375 C 38 37.824219 37.171875 38.613281 35.589844 38.613281 C 33.707031 38.613281 32.816406 37.335938 32 36 L 29 38 C 30.121094 40.214844 32.132813 42 35.675781 42 C 39.300781 42 42 40.117188 42 36.683594 C 42 33.496094 40.171875 32.078125 36.925781 30.6875 L 35.972656 30.28125 C 34.335938 29.570313 33.625 29.109375 33.625 27.964844 C 33.625 27.039063 34.335938 26.328125 35.453125 26.328125 C 36.550781 26.328125 37.253906 26.792969 37.90625 27.964844 L 40.878906 26.058594 C 39.625 23.84375 37.878906 23 35.453125 23 Z"></path>
  </symbol>
  <symbol id="icon-html">
    <path d="M 45.273438 2.324219 C 45.085938 2.117188 44.816406 2 44.535156 2 L 5.464844 2 C 5.183594 2 4.914063 2.117188 4.726563 2.324219 C 4.535156 2.53125 4.441406 2.808594 4.46875 3.089844 L 7.988281 42.515625 C 8.023438 42.929688 8.3125 43.273438 8.710938 43.390625 L 24.722656 47.960938 C 24.808594 47.988281 24.902344 48 24.996094 48 C 25.089844 48 25.179688 47.988281 25.269531 47.960938 L 41.292969 43.390625 C 41.691406 43.273438 41.976563 42.929688 42.015625 42.515625 L 45.53125 3.089844 C 45.558594 2.808594 45.464844 2.53125 45.273438 2.324219 Z M 36.847656 15.917969 L 18.035156 15.917969 L 18.484375 21.007813 L 36.394531 21.007813 L 35.050781 36.050781 L 24.992188 39.089844 L 24.894531 39.058594 L 14.953125 36.046875 L 14.410156 29.917969 L 19.28125 29.917969 L 19.492188 32.296875 L 25.050781 33.460938 L 30.507813 32.296875 L 31.089844 25.859375 L 14.046875 25.859375 L 12.722656 11.054688 L 37.28125 11.054688 Z"></path>
  </symbol>
  <symbol id="icon-css" viewBox="0 0 50 50">
    <path d="M25.428,3.333C25.238,3.121,24.967,3,24.683,3H5.317C5.033,3,4.762,3.121,4.572,3.333c-0.19,0.212-0.28,0.495-0.249,0.777 l2.202,19.823c0.044,0.403,0.329,0.74,0.719,0.851l7.48,2.137c0.09,0.026,0.183,0.039,0.275,0.039s0.185-0.013,0.275-0.039 l7.48-2.137c0.39-0.111,0.674-0.448,0.719-0.851L25.676,4.11C25.708,3.828,25.618,3.545,25.428,3.333z M20.629,10.43h-8.93 l0.212,2.542h8.503l-0.638,7.51L15.003,22l-0.047-0.015l-4.72-1.505L9.978,17.42h2.312l0.101,1.189l2.637,0.581l2.591-0.582 l0.275-3.213h-8.09L9.178,8h11.659L20.629,10.43z"></path>
  </symbol>
  <symbol id="icon-npm" viewBox="0 0 50 50">
<path d="M 0 10 L 0 21 L 9 21 L 9 23 L 16 23 L 16 21 L 32 21 L 32 10 L 0 10 z M 1.7773438 11.777344 L 8.8886719 11.777344 L 8.890625 11.777344 L 8.890625 19.445312 L 7.1113281 19.445312 L 7.1113281 13.556641 L 5.3339844 13.556641 L 5.3339844 19.445312 L 1.7773438 19.445312 L 1.7773438 11.777344 z M 10.667969 11.777344 L 17.777344 11.777344 L 17.779297 11.777344 L 17.779297 19.443359 L 14.222656 19.443359 L 14.222656 21.222656 L 10.667969 21.222656 L 10.667969 11.777344 z M 19.556641 11.777344 L 30.222656 11.777344 L 30.224609 11.777344 L 30.224609 19.445312 L 28.445312 19.445312 L 28.445312 13.556641 L 26.667969 13.556641 L 26.667969 19.445312 L 24.890625 19.445312 L 24.890625 13.556641 L 23.111328 13.556641 L 23.111328 19.445312 L 19.556641 19.445312 L 19.556641 11.777344 z M 14.222656 13.556641 L 14.222656 17.667969 L 16 17.667969 L 16 13.556641 L 14.222656 13.556641 z"></path>
</symbol>
</svg>
