  <svg xmlns="http://www.w3.org/2000/svg" x="0px" y="0px" width="100" height="100" viewBox="0 0 75 75">
  <symbol id="icon-js" viewBox="0 0 50 50">
    <path fill="black" d="M 6.667969 4 C 5.207031 4 4 5.207031 4 6.667969 L 4 43.332031 C 4 44.792969 5.207031 46 6.667969 46 L 43.332031 46 C 44.792969 46 46 44.796875 46 43.332031 L 46 6.667969 C 46 5.207031 44.796875 4 43.332031 4 Z M 6.667969 6 L 43.332031 6 C 43.703125 6 44 6.296875 44 6.667969 L 44 43.332031 C 44 43.703125 43.703125 44 43.332031 44 L 6.667969 44 C 6.296875 44 6 43.703125 6 43.332031 L 6 6.667969 C 6 6.296875 6.296875 6 6.667969 6 Z M 23 23 L 23 35.574219 C 23 37.503906 22.269531 38 21 38 C 19.671875 38 18.75 37.171875 18.140625 36.097656 L 15 38 C 15.910156 39.925781 18.140625 42 21.234375 42 C 24.65625 42 27 40.179688 27 36.183594 L 27 23 Z M 35.453125 23 C 32.046875 23 29.863281 25.179688 29.863281 28.042969 C 29.863281 31.148438 31.695313 32.617188 34.449219 33.789063 L 35.402344 34.199219 C 37.140625 34.960938 38 35.425781 38 36.734375 C 38 37.824219 37.171875 38.613281 35.589844 38.613281 C 33.707031 38.613281 32.816406 37.335938 32 36 L 29 38 C 30.121094 40.214844 32.132813 42 35.675781 42 C 39.300781 42 42 40.117188 42 36.683594 C 42 33.496094 40.171875 32.078125 36.925781 30.6875 L 35.972656 30.28125 C 34.335938 29.570313 33.625 29.109375 33.625 27.964844 C 33.625 27.039063 34.335938 26.328125 35.453125 26.328125 C 36.550781 26.328125 37.253906 26.792969 37.90625 27.964844 L 40.878906 26.058594 C 39.625 23.84375 37.878906 23 35.453125 23 Z"></path>
  </symbol>
  <symbol id="icon-html" viewBox="0 0 50 50">
    <path d="M 45.273438 2.324219 C 45.085938 2.117188 44.816406 2 44.535156 2 L 5.464844 2 C 5.183594 2 4.914063 2.117188 4.726563 2.324219 C 4.535156 2.53125 4.441406 2.808594 4.46875 3.089844 L 7.988281 42.515625 C 8.023438 42.929688 8.3125 43.273438 8.710938 43.390625 L 24.722656 47.960938 C 24.808594 47.988281 24.902344 48 24.996094 48 C 25.089844 48 25.179688 47.988281 25.269531 47.960938 L 41.292969 43.390625 C 41.691406 43.273438 41.976563 42.929688 42.015625 42.515625 L 45.53125 3.089844 C 45.558594 2.808594 45.464844 2.53125 45.273438 2.324219 Z M 36.847656 15.917969 L 18.035156 15.917969 L 18.484375 21.007813 L 36.394531 21.007813 L 35.050781 36.050781 L 24.992188 39.089844 L 24.894531 39.058594 L 14.953125 36.046875 L 14.410156 29.917969 L 19.28125 29.917969 L 19.492188 32.296875 L 25.050781 33.460938 L 30.507813 32.296875 L 31.089844 25.859375 L 14.046875 25.859375 L 12.722656 11.054688 L 37.28125 11.054688 Z"></path>
  </symbol>
  <symbol id="icon-css" viewBox="0 0 50 50">
    <path d="M25.428,3.333C25.238,3.121,24.967,3,24.683,3H5.317C5.033,3,4.762,3.121,4.572,3.333c-0.19,0.212-0.28,0.495-0.249,0.777 l2.202,19.823c0.044,0.403,0.329,0.74,0.719,0.851l7.48,2.137c0.09,0.026,0.183,0.039,0.275,0.039s0.185-0.013,0.275-0.039 l7.48-2.137c0.39-0.111,0.674-0.448,0.719-0.851L25.676,4.11C25.708,3.828,25.618,3.545,25.428,3.333z M20.516,13.074l-0.446,7.285 l-5.038,1.647l-5.038-1.647l-0.191-3.484h2.55l0.064,1.584l2.615,0.887l2.615-0.887l0.191-2.85h-5.612l-0.127-2.534h5.867 l0.191-2.534H9.356L9.165,8.006h11.67L20.516,13.074z"></path>
  </symbol>
  <symbol id="icon-npm" viewBox="0 0 50 50">
    <path d="M 0 10 L 0 21 L 9 21 L 9 23 L 16 23 L 16 21 L 32 21 L 32 10 L 0 10 z M 1.7773438 11.777344 L 8.8886719 11.777344 L 8.890625 11.777344 L 8.890625 19.445312 L 7.1113281 19.445312 L 7.1113281 13.556641 L 5.3339844 13.556641 L 5.3339844 19.445312 L 1.7773438 19.445312 L 1.7773438 11.777344 z M 10.667969 11.777344 L 17.777344 11.777344 L 17.779297 11.777344 L 17.779297 19.443359 L 14.222656 19.443359 L 14.222656 21.222656 L 10.667969 21.222656 L 10.667969 11.777344 z M 19.556641 11.777344 L 30.222656 11.777344 L 30.224609 11.777344 L 30.224609 19.445312 L 28.445312 19.445312 L 28.445312 13.556641 L 26.667969 13.556641 L 26.667969 19.445312 L 24.890625 19.445312 L 24.890625 13.556641 L 23.111328 13.556641 L 23.111328 19.445312 L 19.556641 19.445312 L 19.556641 11.777344 z M 14.222656 13.556641 L 14.222656 17.667969 L 16 17.667969 L 16 13.556641 L 14.222656 13.556641 z"></path>
  </symbol>
  <symbol id="icon-wordpress" viewBox="0 0 50 50">
    <path d="M25,2C12.317,2,2,12.318,2,25s10.317,23,23,23s23-10.318,23-23S37.683,2,25,2z M25,7c4.26,0,8.166,1.485,11.247,3.955 c-0.956,0.636-1.547,1.74-1.547,2.945c0,1.6,0.9,3,1.9,4.6c0.8,1.3,1.6,3,1.6,5.4c0,1.7-0.5,3.8-1.5,6.4l-2,6.6l-7.1-21.2 c1.2-0.1,2.3-0.2,2.3-0.2c1-0.1,0.9-1.6-0.1-1.6c0,0,0,0-0.1,0c0,0-3.2,0.3-5.3,0.3c-1.9,0-5.2-0.3-5.2-0.3s0,0-0.1,0 c-1,0-1.1,1.6-0.1,1.6c0,0,1,0.1,2.1,0.2l3.1,8.4L19.9,37l-7.2-21.4c1.2-0.1,2.3-0.2,2.3-0.2c1-0.1,0.9-1.6-0.1-1.6c0,0,0,0-0.1,0 c0,0-2.152,0.202-4.085,0.274C14.003,9.78,19.168,7,25,7z M7,25c0-1.8,0.271-3.535,0.762-5.174l7.424,20.256 C10.261,36.871,7,31.323,7,25z M19.678,42.2L25,26.6l5.685,15.471C28.897,42.665,26.989,43,25,43 C23.147,43,21.36,42.719,19.678,42.2z M35.304,39.75L35.304,39.75L40.6,24.4c0.786-2,1.21-3.742,1.39-5.304 C42.633,20.947,43,22.928,43,25C43,31.111,39.954,36.497,35.304,39.75z"></path>
  </symbol>
  <symbol id="icon-adobe-xd" viewBox="0 0 24 24">
    <path d="M 5 3 C 3.896 3 3 3.895 3 5 L 3 19 C 3 20.105 3.896 21 5 21 L 19 21 C 20.104 21 21 20.105 21 19 L 21 5 C 21 3.895 20.104 3 19 3 L 5 3 z M 5 5 L 19 5 L 19 19 L 5 19 L 5 5 z M 15.96875 7.3007812 L 15.96875 10.476562 C 15.64475 10.054563 15.238 9.84375 14.75 9.84375 C 14.078 9.84375 13.565844 10.099328 13.214844 10.611328 C 12.863844 11.123328 12.6875 11.8985 12.6875 12.9375 L 12.6875 13.417969 C 12.6955 14.401969 12.872656 15.146297 13.222656 15.654297 C 13.572656 16.162297 14.080141 16.417969 14.744141 16.417969 C 15.280141 16.417969 15.716641 16.162297 16.056641 15.654297 L 16.132812 16.300781 L 17.638672 16.300781 L 17.638672 7.3007812 L 15.96875 7.3007812 z M 10.251953 7.7675781 L 9.1035156 10.697266 L 7.953125 7.7695312 L 5.9785156 7.7695312 L 7.9882812 11.998047 L 5.9375 16.300781 L 7.9375 16.300781 L 9.1035156 13.316406 L 10.275391 16.298828 L 12.273438 16.298828 L 10.222656 11.998047 L 12.226562 7.7675781 L 10.251953 7.7675781 z M 15.232422 11.230469 C 15.560422 11.230469 15.806703 11.386219 15.970703 11.699219 L 15.970703 14.595703 C 15.802703 14.888703 15.554562 15.035156 15.226562 15.035156 C 14.909562 15.035156 14.685734 14.910109 14.552734 14.662109 C 14.419734 14.414109 14.353516 13.978516 14.353516 13.353516 L 14.353516 12.912109 C 14.353516 12.283109 14.423453 11.845609 14.564453 11.599609 C 14.705453 11.353609 14.927422 11.230469 15.232422 11.230469 z"></path>
  </symbol>
  <symbol id="icon-php" viewBox="0 0 50 50">
    <path d="M 25 12 C 11.542969 12 1 17.710938 1 25 C 1 32.289063 11.542969 38 25 38 C 38.457031 38 49 32.289063 49 25 C 49 17.710938 38.457031 12 25 12 Z M 22.507813 16 L 25.128906 16 L 24.296875 20 L 26.636719 20 C 28.121094 20 29.117188 20.207031 29.683594 20.726563 C 30.238281 21.238281 30.40625 22.078125 30.183594 23.222656 L 29.144531 28 L 26.480469 28 L 27.4375 23.582031 C 27.554688 22.976563 27.507813 22.554688 27.304688 22.332031 C 27.101563 22.109375 26.65625 22 25.988281 22 L 23.890625 22 L 22.625 28 L 20 28 Z M 11 20 L 16.332031 20 C 18.875 20 20.414063 21.703125 19.8125 24.246094 C 19.113281 27.199219 17.238281 28 13.792969 28 L 12.144531 28 L 11.621094 31 L 8.972656 31 Z M 32 20 L 37.332031 20 C 39.875 20 41.414063 21.703125 40.8125 24.246094 C 40.113281 27.199219 38.238281 28 34.792969 28 L 33.144531 28 L 32.621094 31 L 29.972656 31 Z M 13.269531 22 L 12.515625 26 L 14.226563 26 C 15.707031 26 17.082031 25.832031 17.3125 23.625 C 17.398438 22.769531 17.042969 22 15.332031 22 Z M 34.269531 22 L 33.515625 26 L 35.226563 26 C 36.707031 26 38.082031 25.832031 38.3125 23.625 C 38.398438 22.769531 38.042969 22 36.332031 22 Z"></path>
  </symbol>
  <symbol id="icon-photoshop" viewBox="0 0 24 24">
    <path d="M 3 3 L 3 21 L 21 21 L 21 3 L 3 3 z M 6.890625 8 L 9.5898438 8 C 11.915844 8 12.193359 10.140469 12.193359 10.605469 C 12.192359 12.465469 10.891641 13.115234 9.6816406 13.115234 L 8.5644531 13.115234 L 8.5644531 15.90625 L 6.890625 15.90625 L 6.890625 8 z M 8.5644531 9.3027344 L 8.5644531 11.814453 L 9.6816406 11.814453 C 10.425641 11.814453 10.611328 11.256469 10.611328 10.605469 C 10.612328 9.9534687 10.333641 9.3027344 9.6816406 9.3027344 L 8.5644531 9.3027344 z M 15.169922 9.953125 C 16.564922 9.953125 17.308594 10.791453 17.308594 11.814453 L 15.728516 11.814453 C 15.728516 11.349453 15.541922 11.070312 15.169922 11.070312 C 14.890922 11.070312 14.611328 11.256906 14.611328 11.628906 C 14.611328 12.558906 17.310547 12.279172 17.310547 14.326172 C 17.309547 15.721172 15.913922 16 15.169922 16 C 13.681922 16 12.9375 14.976875 12.9375 14.046875 L 14.425781 14.046875 C 14.425781 14.790875 14.983922 14.884766 15.169922 14.884766 C 15.541922 14.884766 15.820313 14.698172 15.820312 14.326172 C 15.820312 13.489172 13.121094 13.581703 13.121094 11.720703 C 13.121094 10.325703 14.424922 9.953125 15.169922 9.953125 z"></path>
  </symbol>
  <symbol id="icon-down-arrow" width="48" height="48" viewBox="0 0 50 50" fill="none">
    <path d="M12 18L24 30L36 18" stroke="#1E1E1E" stroke-width="4" stroke-linecap="round" stroke-linejoin="round"/>
  </symbol>
</svg>
