<svg width="1448" height="1289" viewBox="0 0 1448 1289" fill="none" xmlns="http://www.w3.org/2000/svg">
<ellipse cx="151" cy="99" rx="150" ry="95" fill="#FED3DD"/>
<ellipse cx="435" cy="146" rx="150" ry="95" fill="#FED3DD"/>
<ellipse cx="724" cy="190" rx="150" ry="95" fill="#FED3DD"/>
<ellipse cx="1017" cy="146" rx="150" ry="95" fill="#FED3DD"/>
<ellipse cx="1296" cy="95" rx="150" ry="95" fill="#FED3DD"/>
<ellipse cx="1298" cy="1194" rx="150" ry="95" transform="rotate(180 1298 1194)" fill="#FED3DD"/>
<ellipse cx="1011" cy="1143" rx="150" ry="95" transform="rotate(180 1011 1143)" fill="#FED3DD"/>
<ellipse cx="722" cy="1099" rx="150" ry="95" transform="rotate(180 722 1099)" fill="#FED3DD"/>
<ellipse cx="429" cy="1143" rx="150" ry="95" transform="rotate(180 429 1143)" fill="#FED3DD"/>
<ellipse cx="150" cy="1194" rx="150" ry="95" transform="rotate(180 150 1194)" fill="#FED3DD"/>
<rect x="17" y="145" width="1429" height="1014" fill="#FED3DD"/>
</svg>
